<?xml version="1.0" encoding="utf-8"?>
<svg id="master-artboard" viewBox="0 0 385.8824157714844 369.41180419921875" version="1.1" xmlns="http://www.w3.org/2000/svg" x="0px" y="0px" style="enable-background:new 0 0 1400 980;" width="385.8824157714844px" height="369.41180419921875px"><rect id="ee-background" x="0" y="0" width="385.8824157714844" height="369.41180419921875" style="fill: white; fill-opacity: 0; pointer-events: none;"/><title>TARGET 1.2</title><title>TARGET 1.4</title><title>TARGET 1.1</title><title>TARGET 1.2</title><title>TARGET 1.2</title><title>TARGET 1.2</title><title>TARGET 1.4</title><title>TARGET 1.2</title><title>TARGET 1.4</title><title>TARGET 1.1</title><title>TARGET 1.2</title><title>TARGET 1.4</title><title>TARGET 1.1</title><title>TARGET 1.2</title><title>TARGET 1.2</title><title>TARGET 1.1</title><title>Artboard 23 copy 3</title><g transform="matrix(1.854244354853505, 0, 0, 1.854244354853505, 100.387244179778, 93.10999787391006)">
			<g>
				<g>
					<path class="st0" d="M68.2,59.2c7.3,0,13.3-2.2,13.3-4.9c0,0,0.2-2.5,0.1-3.1c0-0.3-0.1-0.7-0.2-1c0.8-0.5,1.4-1.3,1.5-2.2&#10;&#9;&#9;&#9;&#9;&#9;&#9;c0,0,0.1-2.8,0.1-3.4c-0.3-3.3-7-5.1-13.4-5.1c-6.5,0-13.4,1.9-13.4,5.4c0,0.2,0.1,3.1,0.1,3.1c0,0.2,0.1,0.4,0.2,0.6&#10;&#9;&#9;&#9;&#9;&#9;&#9;c-1,0.6-1.6,1.6-1.7,2.7c0,0.2,0.1,3.1,0.1,3.1c0,0.8,0.4,1.5,1,1.9c1.4,1.1,3.9,2.1,7.1,2.6C64.7,59.1,66.4,59.2,68.2,59.2z&#10;&#9;&#9;&#9;&#9;&#9;&#9; M69.5,40.8c7.1,0,12,2.1,12,4s-4.9,4-12,4s-12-2.1-12-4S62.4,40.8,69.5,40.8z M56.1,51.2c0.1-0.6,0.5-1.2,1-1.5&#10;&#9;&#9;&#9;&#9;&#9;&#9;c0.4,0.4,0.9,0.7,1.3,1c2.4,1.3,6.4,2.2,11,2.2c3.2,0.1,6.4-0.4,9.4-1.5c0.4-0.1,0.8-0.3,1.2-0.5c0,0.1,0.1,0.2,0.1,0.3&#10;&#9;&#9;&#9;&#9;&#9;&#9;c0,1.9-4.9,4-12,4S56.1,53.1,56.1,51.2z" style="fill: rgb(255, 144, 52);"/>
				</g>
				<g>
					<path class="st0" d="M82.8,56.5c-0.1-0.2-0.2-0.4-0.3-0.5c-0.1-0.1-0.2-0.2-0.3-0.3c-0.2-0.1-0.4-0.2-0.6-0.3&#10;&#9;&#9;&#9;&#9;&#9;&#9;c-0.2,0.3-0.4,0.6-0.6,0.8c0.2,0.1,0.4,0.2,0.5,0.3c0.4,0.2,0.6,0.6,0.6,1c0,0.3-0.2,0.7-0.5,0.9c-0.2,0.1-0.3,0.3-0.5,0.4&#10;&#9;&#9;&#9;&#9;&#9;&#9;c-0.1,0-0.6,0.3-0.8,0.4s-0.8,0.4-1.2,0.5c0,0-0.8,0.3-1.2,0.4c-0.1,0-1.2,0.3-1.6,0.4c-0.1,0-1.4,0.2-2,0.3&#10;&#9;&#9;&#9;&#9;&#9;&#9;c-0.2,0-1.5,0.2-2.1,0.2c-0.2,0-2.2,0.1-3.1,0.1c-1.4,0-2.8-0.1-4.2-0.3c-1-0.1-2.1-0.3-3-0.5c-1.1-0.2-2.2-0.6-3.2-1&#10;&#9;&#9;&#9;&#9;&#9;&#9;c-0.6-0.3-1.2-0.7-1.6-1.1c-0.4-0.4-0.7-0.9-1-1.4c0,0,0,1.7,0,1.8V60c0,0.8,0.4,1.5,1,1.9c1.3,1.2,3.9,2.1,7.1,2.6&#10;&#9;&#9;&#9;&#9;&#9;&#9;c1.7,0.3,3.4,0.4,5.2,0.4c2.5,0,5.1-0.2,7.5-0.8h0.1c1.3-0.3,2.6-0.8,3.8-1.5l0,0c0.3-0.2,0.6-0.4,0.8-0.6&#10;&#9;&#9;&#9;&#9;&#9;&#9;c0.4-0.3,0.8-0.8,1-1.3c0.1-0.2,0.1-0.5,0.1-0.7c0,0,0.1-2.8,0.1-2.9C82.9,57,82.9,56.7,82.8,56.5z" style="fill: rgb(255, 144, 52);"/>
				</g>
				<g>
					<path class="st0" d="M81.3,68.2c-0.9,0.6-1.9,1-2.9,1.3c-2.9,0.8-6,1.2-9.1,1.1c-1.5,0-3-0.1-4.5-0.3C63.9,70.1,63,70,62,69.7&#10;&#9;&#9;&#9;&#9;&#9;&#9;c-0.5-0.1-0.9-0.2-1.3-0.4c-1.3-0.4-2.5-0.9-3.5-1.7c-0.4-0.3-0.7-0.7-1-1.1v1.2c0,0.3,0,1.8,0,1.8c0,0.8,0.4,1.5,1,1.9&#10;&#9;&#9;&#9;&#9;&#9;&#9;c1.3,1.2,3.9,2.1,7.1,2.6c1.7,0.3,3.4,0.4,5.2,0.4c2.5,0,5.1-0.3,7.6-0.8h0.1c1.3-0.3,2.6-0.8,3.8-1.5l0,0c1.2-0.8,2-1.6,2-2.6&#10;&#9;&#9;&#9;&#9;&#9;&#9;c0,0,0.1-2.7,0.1-2.9C82.5,67.3,81.9,67.8,81.3,68.2z" style="fill: rgb(255, 144, 52);"/>
				</g>
				<g>
					<path class="st0" d="M57.2,66.7c1.3,1.2,3.9,2.1,7.1,2.6c1.7,0.3,3.4,0.4,5.2,0.4c2.5,0,5-0.3,7.4-0.8H77&#10;&#9;&#9;&#9;&#9;&#9;&#9;c1.3-0.3,2.6-0.8,3.8-1.5l0,0c0.3-0.2,0.6-0.4,0.8-0.6c0.4-0.3,0.8-0.8,1-1.3c0.1-0.2,0.1-0.5,0.1-0.7c0,0,0.1-2.7,0.1-2.9&#10;&#9;&#9;&#9;&#9;&#9;&#9;c-0.4,0.6-1.6,2.3-6.8,3.4c-2.2,0.4-4.5,0.6-6.8,0.6c-4.2-0.1-8.7-0.8-10.6-2.1c-0.6-0.3-1.2-0.7-1.7-1.2&#10;&#9;&#9;&#9;&#9;&#9;&#9;c-0.3-0.3-0.6-0.6-0.8-1c0,0,0,1.3,0,1.3v1.9C56.1,65.7,56.6,66.3,57.2,66.7z" style="fill: rgb(255, 144, 52);"/>
				</g>
				<g>
					<path class="st0" d="M82.9,76.2c-0.4,0.6-1,1.1-1.6,1.5c-0.9,0.6-1.9,1-2.9,1.3c-2.9,0.8-6,1.2-9.1,1.1c-1.5,0-3-0.1-4.5-0.3&#10;&#9;&#9;&#9;&#9;&#9;&#9;c-1-0.1-1.8-0.3-2.7-0.5c-0.5-0.1-0.9-0.2-1.3-0.4c-1.3-0.4-2.5-0.9-3.5-1.7c-0.4-0.3-0.7-0.7-1-1.1v1.2c0,0.3,0,1.8,0,1.8&#10;&#9;&#9;&#9;&#9;&#9;&#9;c0,0.8,0.4,1.5,1,1.9c1.3,1.2,3.9,2.1,7.1,2.6c1.7,0.3,3.4,0.4,5.2,0.4c2.5,0,5-0.3,7.5-0.8h0.1c1.3-0.3,2.6-0.8,3.8-1.5l0,0&#10;&#9;&#9;&#9;&#9;&#9;&#9;c1.2-0.8,2-1.6,2-2.6C82.9,79.1,83,76.4,82.9,76.2z" style="fill: rgb(255, 144, 52);"/>
				</g>
				<g>
					<path class="st0" d="M64.3,78.9c1.7,0.3,3.4,0.4,5.2,0.4c2.5,0,5-0.3,7.4-0.8H77c1.3-0.3,2.6-0.8,3.8-1.4l0,0&#10;&#9;&#9;&#9;&#9;&#9;&#9;c0.3-0.2,0.6-0.4,0.8-0.6c0.4-0.3,0.8-0.8,1-1.3c0.1-0.2,0.1-0.5,0.1-0.7c0,0,0.1-2.7,0.1-2.9c-0.4,0.6-1.6,2.3-6.8,3.4&#10;&#9;&#9;&#9;&#9;&#9;&#9;c-2.2,0.4-4.5,0.6-6.8,0.6c-4.2-0.1-8.7-0.8-10.6-2.1C58,73,57.5,72.6,57,72.2c-0.3-0.3-0.6-0.6-0.8-1c0,0,0,1.3,0,1.3l0.1,1.9&#10;&#9;&#9;&#9;&#9;&#9;&#9;c0,0.7,0.4,1.4,1,1.9C58.6,77.4,61.2,78.4,64.3,78.9z" style="fill: rgb(255, 144, 52);"/>
				</g>
				<g>
					<path class="st0" d="M81.5,87.2c-0.9,0.6-1.9,1-2.9,1.3c-2.9,0.8-6,1.2-9.1,1.1c-1.5,0-3-0.1-4.5-0.3c-0.9-0.1-1.8-0.3-2.7-0.5&#10;&#9;&#9;&#9;&#9;&#9;&#9;c-0.5-0.1-0.9-0.2-1.3-0.4c-1.3-0.4-2.5-0.9-3.5-1.7c-0.4-0.3-0.7-0.7-1-1.1v1.2c0,0.3,0,1.8,0,1.8c0,0.8,0.4,1.5,1,1.9&#10;&#9;&#9;&#9;&#9;&#9;&#9;c1.3,1.2,3.9,2.1,7.1,2.6c1.7,0.3,3.4,0.4,5.2,0.4c2.5,0,5-0.3,7.4-0.8h0.1c1.4-0.3,2.7-0.8,3.9-1.5l0,0c1.2-0.8,2-1.6,2-2.6&#10;&#9;&#9;&#9;&#9;&#9;&#9;c0,0,0.1-2.7,0.1-2.9C82.6,86.3,82.1,86.8,81.5,87.2z" style="fill: rgb(255, 144, 52);"/>
				</g>
				<g>
					<path class="st0" d="M57.4,85.8c1.3,1.2,3.9,2.1,7.1,2.6c1.7,0.3,3.4,0.4,5.2,0.4c2.5,0,5-0.2,7.4-0.8h0.1&#10;&#9;&#9;&#9;&#9;&#9;&#9;c1.3-0.3,2.6-0.8,3.8-1.5l0,0c0.3-0.2,0.6-0.4,0.8-0.6c0.4-0.3,0.8-0.8,1-1.3c0.1-0.2,0.1-0.5,0.1-0.7c0,0,0.1-2.7,0.1-2.9&#10;&#9;&#9;&#9;&#9;&#9;&#9;c-0.4,0.6-1.6,2.3-6.8,3.4c-2.2,0.4-4.5,0.6-6.8,0.6c-4.2-0.1-8.7-0.8-10.6-2.1c-0.6-0.3-1.2-0.7-1.7-1.1&#10;&#9;&#9;&#9;&#9;&#9;&#9;c-0.3-0.3-0.6-0.6-0.8-1c0,0,0,1.3,0,1.3l0,1.9C56.4,84.7,56.8,85.4,57.4,85.8z" style="fill: rgb(255, 144, 52);"/>
				</g>
				<g>
					<path class="st0" d="M83.1,95.2c-0.4,0.6-1,1.1-1.6,1.5c-0.9,0.6-1.9,1-2.9,1.3c-2.9,0.8-6,1.2-9.1,1.1c-1.5,0-3-0.1-4.5-0.3&#10;&#9;&#9;&#9;&#9;&#9;&#9;c-1-0.1-1.8-0.3-2.7-0.5c-0.5-0.1-0.9-0.2-1.3-0.4c-1.3-0.4-2.5-0.9-3.5-1.7c-0.4-0.3-0.7-0.6-1-1.1v1.2c0,0.3,0,1.8,0,1.8&#10;&#9;&#9;&#9;&#9;&#9;&#9;c0,0.8,0.4,1.5,1,1.9c1.3,1.2,3.9,2.1,7.1,2.6c1.7,0.3,3.4,0.4,5.2,0.4c2.5,0,5-0.3,7.4-0.8h0.1c1.3-0.3,2.6-0.8,3.8-1.5l0,0&#10;&#9;&#9;&#9;&#9;&#9;&#9;c1.2-0.8,2-1.6,2-2.6C83.1,98.1,83.2,95.5,83.1,95.2z" style="fill: rgb(255, 144, 52);"/>
				</g>
				<g>
					<path class="st0" d="M64.5,97.9c1.7,0.3,3.4,0.4,5.2,0.4c2.5,0,5-0.3,7.4-0.8h0.1c1.3-0.3,2.6-0.8,3.8-1.5l0,0&#10;&#9;&#9;&#9;&#9;&#9;&#9;c0.3-0.2,0.6-0.4,0.8-0.6c0.4-0.3,0.8-0.8,1-1.3c0.1-0.2,0.2-0.5,0.2-0.7c0,0,0.1-2.7,0.1-2.9c-0.4,0.6-1.6,2.3-6.8,3.4&#10;&#9;&#9;&#9;&#9;&#9;&#9;c-2.2,0.4-4.5,0.6-6.8,0.6c-4.2-0.1-8.7-0.8-10.6-2.1c-0.6-0.3-1.2-0.7-1.7-1.1c-0.3-0.3-0.6-0.6-0.8-1c0,0,0,1.3,0,1.3v1.9&#10;&#9;&#9;&#9;&#9;&#9;&#9;c0.1,0.7,0.4,1.4,1,1.9C58.8,96.5,61.3,97.4,64.5,97.9z" style="fill: rgb(255, 144, 52);"/>
				</g>
			</g>
			<g>
				<g>
					<path class="st0" d="M31.9,97.8c7.3,0,13.3-2.2,13.3-4.9c0,0,0.2-2.5,0.1-3.1c0-0.3-0.1-0.7-0.2-1c0.8-0.5,1.4-1.3,1.5-2.2&#10;&#9;&#9;&#9;&#9;&#9;&#9;c0,0,0.1-2.8,0.1-3.4c-0.3-3.4-7-5.2-13.4-5.2c-6.5,0-13.4,1.9-13.4,5.4c0,0.2,0.1,3.1,0.1,3.1c0,0.2,0.1,0.4,0.2,0.6&#10;&#9;&#9;&#9;&#9;&#9;&#9;c-1,0.6-1.6,1.6-1.7,2.7c0,0.2,0.1,3.1,0.1,3.1c0,0.8,0.4,1.5,1,1.9c1.4,1.2,3.9,2.1,7.1,2.6C28.4,97.6,30.2,97.8,31.9,97.8z&#10;&#9;&#9;&#9;&#9;&#9;&#9; M33.3,79.4c7.1,0,12,2.1,12,4s-4.9,4-12,4s-12-2.1-12-4S26.2,79.4,33.3,79.4z M19.9,89.8c0.1-0.6,0.5-1.2,1-1.5&#10;&#9;&#9;&#9;&#9;&#9;&#9;c0.4,0.4,0.9,0.7,1.4,1c2.4,1.3,6.4,2.2,11,2.2c3.2,0.1,6.4-0.4,9.5-1.4c0.4-0.2,0.8-0.3,1.2-0.5c0,0.1,0.1,0.2,0.1,0.3&#10;&#9;&#9;&#9;&#9;&#9;&#9;c0,1.9-4.9,4-12,4S19.9,91.7,19.9,89.8z" style="fill: rgb(255, 144, 52);"/>
				</g>
				<g>
					<path class="st0" d="M46.6,95.1c-0.1-0.2-0.2-0.4-0.3-0.5c-0.1-0.1-0.2-0.2-0.3-0.3c-0.2-0.1-0.4-0.2-0.5-0.3&#10;&#9;&#9;&#9;&#9;&#9;&#9;c-0.2,0.3-0.4,0.6-0.6,0.8c0.2,0.1,0.4,0.2,0.5,0.3c0.4,0.2,0.6,0.6,0.6,1c0,0.3-0.2,0.7-0.5,0.9c-0.2,0.1-0.3,0.3-0.5,0.4&#10;&#9;&#9;&#9;&#9;&#9;&#9;c-0.1,0-0.5,0.3-0.8,0.4s-0.8,0.4-1.2,0.5c0,0-0.8,0.3-1.2,0.4c-0.1,0-1.2,0.3-1.6,0.4c-0.1,0-1.4,0.2-2,0.3&#10;&#9;&#9;&#9;&#9;&#9;&#9;c-0.2,0-1.5,0.2-2.1,0.2c-0.2,0-2.2,0.1-3.1,0.1c-1.4,0-2.8-0.1-4.2-0.3c-1-0.2-2.1-0.3-3-0.6c-1.1-0.2-2.2-0.6-3.2-1&#10;&#9;&#9;&#9;&#9;&#9;&#9;c-0.6-0.3-1.2-0.7-1.6-1.1c-0.4-0.4-0.7-0.9-1-1.4V97v1.6c0,0.8,0.4,1.5,1,1.9c1.3,1.2,3.9,2.1,7.1,2.6&#10;&#9;&#9;&#9;&#9;&#9;&#9;c1.7,0.3,3.4,0.4,5.2,0.4c2.5,0,5-0.3,7.4-0.8h0.1c1.3-0.3,2.6-0.8,3.8-1.5l0,0c0.3-0.2,0.6-0.4,0.8-0.6c0.4-0.3,0.8-0.8,1-1.3&#10;&#9;&#9;&#9;&#9;&#9;&#9;c0.1-0.2,0.1-0.5,0.1-0.7c0,0,0.1-2.8,0.1-2.9C46.6,95.6,46.6,95.3,46.6,95.1z" style="fill: rgb(255, 144, 52);"/>
				</g>
			</g>
		</g><title>TARGET 1 B copy 4</title><g transform="matrix(5.566277647351621, 0, 0, 5.566277647351621, -125.01092467927444, -148.6969845749516)">
		<g>
			<path class="st0" d="M75.3,81.7c0,1.2,0.9,2.1,2.1,2.1s2.1-0.9,2.1-2.1v-1.6h-4.2V81.7z" style="fill: rgb(247, 139, 51);"/>
		</g>
		<g>
			<path class="st0" d="M82.8,83.8c1.1,0,2.1-0.9,2.1-2v-0.1l0,0v-1.6h-4.2v1.6C80.7,82.8,81.6,83.8,82.8,83.8L82.8,83.8z" style="fill: rgb(247, 139, 51);"/>
		</g>
		<g>
			<path class="st0" d="M71,55.1v8.7c0,0.8,0.7,1.5,1.5,1.5s1.5-0.7,1.5-1.5l0,0v-9c0-0.3,0.1-0.8,0.7-0.8h1.5v-5.7h-0.6&#10;&#9;&#9;&#9;&#9;c-2.6,0.2-4.6,2.4-4.6,5V55.1z" style="fill: rgb(247, 139, 51);"/>
		</g>
		<g>
			<path d="M 82.30000305175781 48.20000076293945 L 80 48.20000076293945 L 77.80000305175781 48.29999923706055 L 77.9000015258789 51.5 L 82.4000015258789 51.5 Z" class="st0" style="fill: rgb(247, 139, 51);"/>
		</g>
		<g>
			<path class="st0" d="M80.1,65.3L80.1,65.3c0.3,0,0.6,0.2,0.6,0.5v13.3h4.2l-0.1-24.2H83v-2.4h-5.8v2.4h-2l0.1,24.3h4.2V65.9&#10;&#9;&#9;&#9;&#9;C79.5,65.6,79.7,65.4,80.1,65.3L80.1,65.3z" style="fill: rgb(247, 139, 51);"/>
		</g>
		<g>
			<path class="st0" d="M84,51.9V54h1.4c0.6,0,0.7,0.5,0.7,0.8v9c0.1,0.8,0.8,1.4,1.6,1.3c0.7,0,1.3-0.6,1.3-1.3V53.3&#10;&#9;&#9;&#9;&#9;c0-2.6-2-4.8-4.6-5h-0.5L84,51.9L84,51.9z" style="fill: rgb(247, 139, 51);"/>
		</g>
		<g>
			<path class="st0" d="M83.6,51.9c0-0.2-0.2-0.4-0.4-0.4s-0.4,0.2-0.4,0.4l0,0l0,0c0,0.2,0.2,0.4,0.4,0.4S83.6,52.1,83.6,51.9z" style="fill: rgb(247, 139, 51);"/>
		</g>
		<g>
			<path class="st0" d="M77.5,51.9c0-0.2-0.2-0.4-0.4-0.4s-0.4,0.2-0.4,0.4l0,0l0,0c0,0.2,0.2,0.4,0.4,0.4l0,0&#10;&#9;&#9;&#9;&#9;C77.4,52.2,77.5,52.1,77.5,51.9z" style="fill: rgb(247, 139, 51);"/>
		</g>
		<g>
			<path class="st0" d="M79.9,46.3c2.2,0,4-1.8,4-4v-0.1c0-2.2-1.8-4-4-4h-0.1c-2.2,0-4,1.8-4,4v0.1l0,0&#10;&#9;&#9;&#9;&#9;C75.8,44.5,77.6,46.3,79.9,46.3L79.9,46.3z" style="fill: rgb(247, 139, 51);"/>
		</g>
	</g><title>TARGET 1.1</title><g transform="matrix(2.1314247108218085, 0, 0, 2.1314247108218085, 302.9033380286567, 113.80960760981868)">
			<path class="st0" d="M32.4,40l8.5,10.8C41,51,41,51.2,41,51.3c-0.1,0.2-0.2,0.3-0.5,0.3h-4.3v19.2c0,0.2-0.2,0.4-0.4,0.4h-7.4&#10;&#9;&#9;&#9;&#9;c-0.2,0-0.4-0.1-0.4-0.4V51.6h-4.3c-0.3,0-0.5-0.1-0.5-0.3c0-0.2,0-0.3,0.1-0.5l8.2-10.7c0.1-0.2,0.3-0.3,0.6-0.3&#10;&#9;&#9;&#9;&#9;C32.1,39.8,32.3,39.9,32.4,40z" style="fill: rgb(255, 144, 52);" transform="matrix(1, 0, 0, 1, -97.96290637052977, -19.0236496944586)"/>
		</g><g transform="matrix(3.6727365635510774, 0, 0, 3.6727365635510774, -186.75421148840283, -69.79191640366004)">
				<path class="st0" d="M86.5,73.6L82,58.7c0,0-1.6-4.3-5.3-4.3H65c-3.6,0-5.3,4.3-5.3,4.3l-4.6,14.9c0,0-0.8,2.7,1.5,3.4s3-2,3-2&#10;&#9;&#9;&#9;&#9;&#9;l3.7-12.5c0,0,0.2-1,0.9-0.8s0.4,1.2,0.4,1.2l-6.4,23.4h6v16.7c0.1,1.6,1.5,2.8,3,2.7c1.5-0.1,2.6-1.2,2.7-2.7V86.4h1.6v16.7&#10;&#9;&#9;&#9;&#9;&#9;c0.1,1.6,1.5,2.8,3,2.7c1.5-0.1,2.6-1.2,2.7-2.7V86.4h6L77,63.1c0,0-0.3-1,0.4-1.2s0.9,0.8,0.9,0.8L82,75c0,0,0.7,2.7,3,2&#10;&#9;&#9;&#9;&#9;&#9;S86.5,73.6,86.5,73.6z" style="fill: rgb(255, 144, 52); fill-opacity: 1;"/>
			</g><g transform="matrix(3.6727365635510774, 0, 0, 3.6727365635510774, -186.75421148840283, -69.79191640366004)">
				<path class="st0" d="M65.3,46.2c0,3,2.5,5.5,5.5,5.5c0,0,0,0,0,0H71c3.1,0,5.6-2.5,5.6-5.5c0,0,0,0,0,0c0-0.4,0-0.8-0.1-1.2&#10;&#9;&#9;&#9;&#9;&#9;H65.5C65.4,45.3,65.3,45.8,65.3,46.2z" style="fill: rgb(255, 144, 52); fill-opacity: 1;"/>
			</g><g transform="matrix(3.6727365635510774, 0, 0, 3.6727365635510774, -186.75421148840283, -69.79191640366004)">
				<path class="st0" d="M77.2,41.8h-0.6c-0.4-1.6-1.5-2.9-3-3.6l-0.8,2.6v-3.9h-3v3.8L68.8,38c-1.7,0.7-2.9,2.1-3.4,3.8h-0.6v2.1&#10;&#9;&#9;&#9;&#9;&#9;h12.4V41.8z" style="fill: rgb(255, 144, 52); fill-opacity: 1;"/>
			</g></svg>