<?xml version="1.0" encoding="utf-8"?>
<svg id="master-artboard" viewBox="0 0 385.8824157714844 369.41180419921875" version="1.1" xmlns="http://www.w3.org/2000/svg" x="0px" y="0px" style="enable-background:new 0 0 1400 980;" width="385.8824157714844px" height="369.41180419921875px"><rect id="ee-background" x="0" y="0" width="385.8824157714844" height="369.41180419921875" style="fill: white; fill-opacity: 0; pointer-events: none;"/><title>TARGET 1.2</title><title>TARGET 1.4</title><title>TARGET 1.1</title><title>TARGET 1.2</title><title>TARGET 1.2</title><title>TARGET 1.2</title><title>TARGET 1.4</title><title>TARGET 1.2</title><title>TARGET 1.4</title><title>TARGET 1.1</title><title>TARGET 1.2</title><title>TARGET 1.4</title><title>TARGET 1.1</title><title>TARGET 1.2</title><title>TARGET 1.2</title><title>TARGET 1.1</title><title>Artboard 23 copy 3</title><title>TARGET 1 B copy 4</title><title>TARGET 1.1</title><title>TARGET 1.2</title><g transform="matrix(6.980423341988954, 0, 0, 6.980423341988954, 160.07878516807386, -95.26693680178693)"><title>TARGET 1.5</title><g id="TARGETS">
	
	<g>
		
	</g>
	
	
	
	
	
	
	
	
	<g class="st2">
	</g>
	
	
	
	
<g transform="matrix(1, 0, 0, 1, -46.77166921461779, -11.692917287044777)">
			<g>
				<path d="M 46.599998474121094 44.20000076293945 L 31.799999237060547 35.599998474121094 L 31.799999237060547 63.400001525878906 L 46.599998474121094 67.9000015258789 Z" class="st0" style="fill: rgb(119, 119, 119);"/>
			</g>
			<g>
				<path d="M 48.29999923706055 44.29999923706055 L 48.29999923706055 67.9000015258789 L 63.20000076293945 63.400001525878906 L 63.20000076293945 35.599998474121094 Z" class="st0" style="fill: rgb(119, 119, 119);"/>
			</g>
			<g>
				<path class="st0" d="M74.9,35c0-1-0.8-1.8-1.8-1.8c-1,0-1.8,0.8-1.8,1.8v1.9h3.5V35z" style="fill: rgb(119, 119, 119);"/>
			</g>
			<g>
				<path d="M 71.80000305175781 62.900001525878906 L 71.4000015258789 62.900001525878906 L 73.19999694824219 69.0999984741211 L 74.9000015258789 62.900001525878906 L 74.5 62.900001525878906 L 74.9000015258789 62.900001525878906 L 74.9000015258789 38.20000076293945 L 74.5 38.20000076293945 L 74 38.20000076293945 L 73.5999984741211 38.20000076293945 L 72.69999694824219 38.20000076293945 L 72.30000305175781 38.20000076293945 L 71.80000305175781 38.20000076293945 L 71.4000015258789 38.20000076293945 L 71.4000015258789 62.900001525878906 Z" class="st0" style="fill: rgb(119, 119, 119);"/>
			</g>
			<g>
				<path d="M 66.4000015258789 36.79999923706055 L 64.80000305175781 35.599998474121094 L 64.80000305175781 64.19999694824219 L 48.29999923706055 69.5 L 47.5 69.5 L 47.400001525878906 69.5 L 46.599998474121094 69.5 L 30.200000762939453 64.9000015258789 L 30.200000762939453 35.599998474121094 L 28.600000381469727 36.79999923706055 L 28.600000381469727 66 L 46.5 71 L 47.400001525878906 71 L 47.5 71 L 48.400001525878906 71 L 65 65.80000305175781 L 66.4000015258789 65.30000305175781 Z" class="st0" style="fill: rgb(119, 119, 119);"/>
			</g>
		</g></g></g></svg>