<?xml version="1.0" encoding="utf-8"?>
<svg id="master-artboard" viewBox="0 0 385.8824157714844 369.41180419921875" version="1.1" xmlns="http://www.w3.org/2000/svg" x="0px" y="0px" style="enable-background:new 0 0 1400 980;" width="385.8824157714844px" height="369.41180419921875px"><rect id="ee-background" x="0" y="0" width="385.8824157714844" height="369.41180419921875" style="fill: white; fill-opacity: 0; pointer-events: none;"/><title>TARGET 1.2</title><title>TARGET 1.4</title><title>TARGET 1.1</title><title>TARGET 1.2</title><title>TARGET 1.2</title><title>TARGET 1.2</title><title>TARGET 1.4</title><g id="g-1" transform="matrix(4.513122558593749, 0, 0, 4.513122558593749, -45.62810250384587, -34.0531753751234)">
	
	
	
	
	
	
	
	
	
	
	<g class="st2">
	</g>
	
	
	<g>
		
	</g>
	<g>
		
		<g>
			
		</g>
		
		<g><g transform="matrix(1, 0, 0, 1.2126398086547852, 0.22112850844860077, -11.860673904418945)">
			<path class="st0" d="M39.5,56.1h0.5c0.6,0,1.1-0.4,1.3-1l2.4-8.1l4.7,18.8c0.1,0.6,0.6,1.1,1.2,1.2h0.2c0.5,0,1-0.3,1.3-0.8&#10;&#9;&#9;&#9;&#9;l6.8-13.4l2.5,6.8c0.2,0.5,0.7,0.9,1.3,0.9l0,0c0.6,0,1.1-0.4,1.3-0.9l8.6-21.6l2.3,5.6c0.3,0.7,1.1,1,1.8,0.7&#10;&#9;&#9;&#9;&#9;c0.7-0.3,1-1.1,0.7-1.8l0,0l-3.7-8.8c-0.2-0.5-0.7-0.8-1.3-0.8l0,0c-0.6,0-1.1,0.3-1.3,0.9l-8.5,21.4l-2.4-6.5&#10;&#9;&#9;&#9;&#9;c-0.2-0.5-0.7-0.9-1.2-0.9c-0.6,0-1.1,0.3-1.3,0.8l-6.3,12.4l-5-19.5c-0.1-0.6-0.6-1.1-1.2-1.1c-0.6,0-1.2,0.4-1.4,1l-3.7,12&#10;&#9;&#9;&#9;&#9;H16.2v2.8L39.5,56.1z" style="fill: rgb(119, 119, 119); fill-opacity: 1;"/>
		</g><g transform="matrix(1, 0, 0, 1, 0, 0)">
			<path class="st0" d="M71.4,51c0,1.2,0.5,2.4,1.3,3.3l6.4,6.4l6.3-6.4l0,0c0.9-0.9,1.3-2.1,1.3-3.3c0-2.5-1.6-4.6-4.1-4.6&#10;&#9;&#9;&#9;&#9;c-1.2,0-2.7,1.4-3.6,2.2c-0.8-0.8-2.2-2.2-3.4-2.2c-2.4,0.1-4.3,2-4.2,4.4C71.4,50.9,71.4,50.9,71.4,51z" style="fill: rgb(119, 119, 119); fill-opacity: 1;"/>
		</g></g>
		
		<g>
			
		</g>
		
		<g>
			
		</g>
		<g>
			
		</g>
		<g>
			
		</g>
	</g>
</g></svg>