<?xml version="1.0" encoding="utf-8"?>
<svg id="master-artboard" viewBox="0 0 385.8824157714844 369.41180419921875" version="1.1" xmlns="http://www.w3.org/2000/svg" x="0px" y="0px" style="enable-background:new 0 0 1400 980;" width="385.8824157714844px" height="369.41180419921875px"><rect id="ee-background" x="0" y="0" width="385.8824157714844" height="369.41180419921875" style="fill: white; fill-opacity: 0; pointer-events: none;"/><title>TARGET 1.2</title><title>TARGET 1.4</title><title>TARGET 1.1</title><title>TARGET 1.2</title><title>TARGET 1.2</title><title>TARGET 1.2</title><title>TARGET 1.4</title><title>TARGET 1.2</title><title>TARGET 1.4</title><title>TARGET 1.1</title><g id="TARGETS" transform="matrix(4.741013050079345, 0, 0, 4.741013050079345, -51.228804387023274, 33.376086139348956)">
	
	
	
	
	<g class="st2">
		
	</g>
	<g class="st2">
		
	</g>
	
	
	
	
	
	<g class="st2">
	</g>
	
	
	<g transform="matrix(1, 0, 0, 1, 1.066746711838789, -61.16014481209119)">
			<g>
				<path class="st0" d="M83.6,81.5c1.5,0,2.7-1.2,2.7-2.8c0-1.5-1.2-2.7-2.8-2.7c-1.5,0-2.7,1.2-2.7,2.7&#10;&#9;&#9;&#9;&#9;&#9;C80.8,80.3,82,81.5,83.6,81.5C83.6,81.5,83.6,81.5,83.6,81.5z" style="fill: rgb(119, 119, 119); stroke: rgb(247, 139, 51); stroke-opacity: 1; stroke-width: 0;"/>
			</g>
			<g>
				<path class="st0" d="M86.8,82.6h-0.2h-6h-0.2c-1.9,0.2-3.4,1.7-3.4,3.7v7.6c-0.1,0.6,0.4,1.1,1,1.2c0.6,0.1,1.1-0.4,1.2-1&#10;&#9;&#9;&#9;&#9;&#9;c0-0.1,0-0.1,0-0.2v-6.5c0-0.2,0.1-0.6,0.5-0.6s0.4,0.3,0.4,0.5v19.6c0,0.8,0.7,1.5,1.5,1.5c0.8,0,1.5-0.7,1.5-1.5c0,0,0,0,0,0&#10;&#9;&#9;&#9;&#9;&#9;V95.6c0-0.2,0.2-0.4,0.4-0.4c0,0,0,0,0,0l0,0c0.2,0,0.4,0.2,0.4,0.4c0,0,0,0,0,0v11.3c0.1,0.8,0.8,1.5,1.7,1.4&#10;&#9;&#9;&#9;&#9;&#9;c0.8-0.1,1.4-0.7,1.4-1.4V87.3c0-0.2,0.1-0.5,0.4-0.5s0.5,0.3,0.5,0.6v6.5c0,0.6,0.5,1.1,1.1,1.1c0.6,0,1.1-0.5,1.1-1.1v-7.6&#10;&#9;&#9;&#9;&#9;&#9;C90.1,84.4,88.7,82.8,86.8,82.6z" style="fill: rgb(119, 119, 119); stroke: rgb(247, 139, 51); stroke-opacity: 1; stroke-width: 0;"/>
			</g>
			<g>
				<path class="st0" d="M60.4,82.9c1.4,0,2.6-1.2,2.6-2.6s-1.2-2.6-2.6-2.6s-2.6,1.2-2.6,2.6l0,0C57.8,81.7,59,82.9,60.4,82.9&#10;&#9;&#9;&#9;&#9;&#9;C60.4,82.9,60.4,82.9,60.4,82.9z" style="fill: rgb(119, 119, 119); stroke: rgb(247, 139, 51); stroke-opacity: 1; stroke-width: 0;"/>
			</g>
			<g>
				<path class="st0" d="M63.5,87.6C63.9,87.5,64,88,64,88l1.7,5.9c0,0,0.3,1.3,1.4,0.9s0.7-1.6,0.7-1.6l-2.2-7c0,0-0.8-2-2.5-2&#10;&#9;&#9;&#9;&#9;&#9;h-5.5c-1.7,0-2.5,2-2.5,2l-2.2,7c0,0-0.4,1.3,0.7,1.6s1.4-0.9,1.4-0.9l1.8-5.9c0,0,0.1-0.4,0.4-0.4s0.2,0.6,0.2,0.6l-3,11h2.8&#10;&#9;&#9;&#9;&#9;&#9;v7.9c0.1,0.7,0.7,1.3,1.5,1.2c0.7-0.1,1.2-0.6,1.2-1.2v-7.9h0.8v7.9c0.1,0.7,0.7,1.3,1.5,1.2c0.7-0.1,1.2-0.6,1.2-1.2v-7.9h2.8&#10;&#9;&#9;&#9;&#9;&#9;l-3-11C63.4,88.2,63.2,87.7,63.5,87.6z" style="fill: rgb(119, 119, 119); stroke: rgb(247, 139, 51); stroke-opacity: 1; stroke-width: 0;"/>
			</g>
			<g>
				<path class="st0" d="M44.9,82.8c1.4,0,2.6-1.2,2.6-2.6s-1.2-2.6-2.6-2.6s-2.6,1.2-2.6,2.6l0,0C42.3,81.7,43.4,82.8,44.9,82.8z" style="fill: rgb(119, 119, 119); stroke: rgb(247, 139, 51); stroke-opacity: 1; stroke-width: 0;"/>
			</g>
			<g>
				<path class="st0" d="M50.1,86.1c0,0-0.8-2-2.5-2h-5.5c-1.7,0-2.5,2-2.5,2l-2.2,7c0,0-0.4,1.3,0.7,1.6s1.4-0.9,1.4-0.9l1.7-5.8&#10;&#9;&#9;&#9;&#9;&#9;c0,0,0.1-0.4,0.4-0.4s0.2,0.6,0.2,0.6l-3,11h2.8v7.9c0.1,0.7,0.7,1.3,1.5,1.2c0.7-0.1,1.2-0.6,1.2-1.2v-7.9h0.8v7.9&#10;&#9;&#9;&#9;&#9;&#9;c0.1,0.7,0.7,1.3,1.5,1.2c0.7-0.1,1.2-0.6,1.2-1.2v-7.9h2.8l-3-11c0,0-0.1-0.5,0.2-0.6s0.4,0.4,0.4,0.4l1.7,5.9&#10;&#9;&#9;&#9;&#9;&#9;c0,0,0.3,1.3,1.4,0.9s0.7-1.6,0.7-1.6L50.1,86.1z" style="fill: rgb(119, 119, 119); stroke: rgb(247, 139, 51); stroke-opacity: 1; stroke-width: 0;"/>
			</g>
			<g>
				<path class="st0" d="M19.9,81.8c1.5,0,2.7-1.2,2.7-2.7c0-1.5-1.2-2.7-2.7-2.7c-1.5,0-2.7,1.2-2.7,2.7c0,0,0,0,0,0&#10;&#9;&#9;&#9;&#9;&#9;C17.1,80.6,18.3,81.8,19.9,81.8C19.9,81.8,19.9,81.8,19.9,81.8z" style="fill: rgb(119, 119, 119); stroke: rgb(247, 139, 51); stroke-opacity: 1; stroke-width: 0;"/>
			</g>
			<g>
				<path class="st0" d="M23,82.9h-0.2h-5.9h-0.2c-1.9,0.2-3.3,1.7-3.3,3.6V94c0,0.3,0.2,0.6,0.4,0.8l-2.4,12.8&#10;&#9;&#9;&#9;&#9;&#9;c0,0.2,0.1,0.4,0.3,0.5c0,0,0,0,0,0h0.1c0.2,0,0.4-0.1,0.4-0.3l2.4-12.7c0.5-0.1,0.9-0.5,0.9-1v-6.5c0-0.2,0.1-0.6,0.5-0.6&#10;&#9;&#9;&#9;&#9;&#9;c0.3,0,0.4,0.3,0.4,0.5V107c0.1,0.8,0.9,1.4,1.7,1.3c0.6-0.1,1.1-0.6,1.3-1.3V95.8c0-0.2,0.2-0.4,0.4-0.4c0,0,0,0,0.1,0l0,0&#10;&#9;&#9;&#9;&#9;&#9;c0.2,0,0.4,0.2,0.4,0.4c0,0,0,0,0,0V107c0.1,0.8,0.9,1.4,1.7,1.3c0.6-0.1,1.1-0.6,1.3-1.3V87.5c0-0.2,0.1-0.5,0.4-0.5&#10;&#9;&#9;&#9;&#9;&#9;s0.5,0.3,0.5,0.6V94c-0.1,0.6,0.4,1.1,1,1.2s1.1-0.4,1.2-1c0-0.1,0-0.1,0-0.2v-7.5C26.3,84.6,24.9,83.1,23,82.9z" style="fill: rgb(119, 119, 119); stroke: rgb(247, 139, 51); stroke-opacity: 1; stroke-width: 0;"/>
			</g>
			<g>
				<path class="st0" d="M72.3,94.6c1.2,0,2.2-1,2.2-2.2s-1-2.2-2.2-2.2s-2.2,1-2.2,2.2l0,0C70.1,93.6,71.1,94.6,72.3,94.6z" style="fill: rgb(119, 119, 119); stroke: rgb(247, 139, 51); stroke-opacity: 1; stroke-width: 0;"/>
			</g>
			<g>
				<path class="st0" d="M76.8,98.9c-1.3-3.4-1.6-3.4-2.8-3.4h-3.4c-1.2,0-1.4,0-2.8,3.4c-0.2,0.5-1,2.4-1,2.5s-0.3,0.8,0.4,1.1&#10;&#9;&#9;&#9;&#9;&#9;s0.9-0.6,0.9-0.6l1.4-3.3c0,0,0-0.1,0.1-0.1s0,0.1,0,0.1v8.7l0,0c0,0.6,0.5,1.2,1.1,1.2c0,0,0,0,0.1,0c0.6,0,1.2-0.4,1.2-1&#10;&#9;&#9;&#9;&#9;&#9;c0,0,0-0.1,0-0.1v-3.5c0,0,0-0.5,0.3-0.5s0.3,0.5,0.3,0.5v3.5c0,0.6,0.5,1.2,1.1,1.2c0,0,0,0,0.1,0c0.6,0,1.1-0.5,1.1-1.1&#10;&#9;&#9;&#9;&#9;&#9;c0,0,0,0,0-0.1l0,0v-8.7c0-0.1,0-0.1,0-0.1s0.1,0.1,0.1,0.1l1.2,3c0,0,0.3,0.8,1,0.5s0.3-1,0.3-1S76.9,99.3,76.8,98.9z" style="fill: rgb(119, 119, 119); stroke: rgb(247, 139, 51); stroke-opacity: 1; stroke-width: 0;"/>
			</g>
			<g>
				<path class="st0" d="M36.4,93.3c-0.4-0.2-0.9,0-1.1,0.4c0,0,0,0,0,0c-0.4,0.7-0.9,1.4-1.4,2.1c-0.2,0.2-0.4,0.3-0.7,0.3h-2.6&#10;&#9;&#9;&#9;&#9;&#9;c-0.3,0-0.5-0.1-0.7-0.3c-0.3-0.3-1.4-2.2-1.4-2.2c-0.1-0.2-0.4-0.4-0.7-0.4c-0.4,0-0.8,0.4-0.8,0.8c0,0.1,0,0.2,0.1,0.3l2.2,4&#10;&#9;&#9;&#9;&#9;&#9;c0.1,0.2,0.1,0.3,0.1,0.5v0.6l0,0c0,0.2,0,0.5-0.1,0.7l-1,4.2h1.2v3.1l0,0c0.1,0.6,0.6,1,1.2,1c0.5,0,0.9-0.5,1-1v-3&#10;&#9;&#9;&#9;&#9;&#9;c0,0,0-0.1,0-0.1h0.6c0,0,0,0.1,0,0.1v3c0.1,0.6,0.6,1,1.2,1c0.5,0,0.9-0.5,1-1v-3.1h1.2l-1.1-4.2c0-0.2-0.1-0.4-0.1-0.6v-0.2&#10;&#9;&#9;&#9;&#9;&#9;l0,0v-0.6c0-0.2,0.1-0.4,0.1-0.5l2-3.7c0,0,0.1-0.3,0.2-0.4C36.9,94,36.8,93.5,36.4,93.3C36.4,93.3,36.4,93.3,36.4,93.3z" style="fill: rgb(119, 119, 119); stroke: rgb(247, 139, 51); stroke-opacity: 1; stroke-width: 0;"/>
			</g>
			<g>
				<path class="st0" d="M31.9,94.7c1.2,0,2.2-1,2.2-2.2s-1-2.2-2.2-2.2c-1.2,0-2.2,1-2.2,2.2S30.7,94.7,31.9,94.7L31.9,94.7z" style="fill: rgb(119, 119, 119); stroke: rgb(247, 139, 51); stroke-opacity: 1; stroke-width: 0;"/>
			</g>
		</g>
</g></svg>