<?xml version="1.0" encoding="utf-8"?>
<svg id="master-artboard" viewBox="0 0 385.8824157714844 369.41180419921875" version="1.1" xmlns="http://www.w3.org/2000/svg" x="0px" y="0px" style="enable-background:new 0 0 1400 980;" width="385.8824157714844px" height="369.41180419921875px"><rect id="ee-background" x="0" y="0" width="385.8824157714844" height="369.41180419921875" style="fill: white; fill-opacity: 0; pointer-events: none;"/><title>TARGET 1.2</title><title>TARGET 1.4</title><title>TARGET 1.1</title><title>TARGET 1.2</title><title>TARGET 1.2</title><title>TARGET 1.2</title><title>TARGET 1.4</title><title>TARGET 1.2</title><title>TARGET 1.4</title><title>TARGET 1.1</title><title>TARGET 1.2</title><title>TARGET 1.4</title><title>TARGET 1.1</title><g transform="matrix(0.8894879538306846, 0, 0, 0.8894879538306846, -206.69951355373922, -186.95026698129863)"><title>TARGET 1.5</title><g class="st2" transform="matrix(5.889423370361328, 0, 0, 5.889423370361328, 401.1117553710938, 7.105427357601002e-14)">
	</g><g transform="matrix(4.144435821379195, 0, 0, 4.144435821379195, 238.961243897072, 133.46851909380933)">
		<g>
			<path class="st0" d="M32.4,49.9c3,0,5.4-2.4,5.4-5.4S35.4,39,32.4,39c-3,0-5.4,2.4-5.4,5.4C27,47.5,29.4,49.9,32.4,49.9&#10;&#9;&#9;&#9;&#9;C32.4,49.9,32.4,49.9,32.4,49.9z" style="fill: rgb(119, 119, 119);"/>
		</g>
		<g>
			<path class="st0" d="M71,49.6c3,0,5.5-2.5,5.5-5.5c0-3-2.5-5.5-5.5-5.5c-3,0-5.5,2.5-5.5,5.5C65.5,47.1,68,49.6,71,49.6&#10;&#9;&#9;&#9;&#9;C71,49.6,71,49.6,71,49.6z" style="fill: rgb(119, 119, 119);"/>
		</g>
		<g>
			<path class="st0" d="M63.1,58.9c0.6,0.9,0.9,1.9,0.9,2.9v9.4h14V61c0-0.4,0.2-1.1,0.8-1.1c0.9,0,1,0.7,1,1.2v10.1H84V59&#10;&#9;&#9;&#9;&#9;c0-3.8-2.9-6.9-6.6-7.3H66.6c-1.5,0.1-3-0.6-3.9-1.8l-9-12.5c-0.4-0.7-1-1.3-1.7-1.8c-1.1-0.6-2,0-2.8,1l-9.9,13.1&#10;&#9;&#9;&#9;&#9;c-1.8,2.2-3.5,2.8-4.6,2.8h-8.3c-3.6,0-5.2,4.2-5.2,4.2l-4.5,14.6h4.9l3.2-10.8c0,0,0.2-0.9,0.9-0.7s0.4,1.2,0.4,1.2l-2.8,10.3&#10;&#9;&#9;&#9;&#9;h17.7l-2.2-8c-0.4-1.7-0.2-3.6,0.7-5.1l3.5-5.4l8.3-11.5l6.9,10.5L63.1,58.9z" style="fill: rgb(119, 119, 119);"/>
		</g>
		<g>
			<path class="st0" d="M39.6,74h-26v2.7h2.1v30.8h25.5V76.7h2.1V74H39.6z M36.1,81.3H20.4v-2.8h15.6L36.1,81.3z" style="fill: rgb(119, 119, 119);"/>
		</g>
		<g>
			<path class="st0" d="M84.1,74h-26v2.7h2.1v30.8h25.5V76.7h2.1V74H84.1z M80.9,81.3H65.3v-2.8h15.6L80.9,81.3z" style="fill: rgb(119, 119, 119);"/>
		</g>
	</g></g></svg>