<?xml version="1.0" encoding="utf-8"?>
<svg id="master-artboard" viewBox="0 0 385.8824157714844 369.41180419921875" version="1.1" xmlns="http://www.w3.org/2000/svg" x="0px" y="0px" style="enable-background:new 0 0 1400 980;" width="385.8824157714844px" height="369.41180419921875px"><rect id="ee-background" x="0" y="0" width="385.8824157714844" height="369.41180419921875" style="fill: white; fill-opacity: 0; pointer-events: none;"/><title>TARGET 1.2</title><title>TARGET 1.4</title><title>TARGET 1.1</title><title>TARGET 1.2</title><title>TARGET 1.2</title><title>TARGET 1.2</title><title>TARGET 1.4</title><title>TARGET 1.2</title><title>TARGET 1.4</title><title>TARGET 1.1</title><title>TARGET 1.2</title><title>TARGET 1.4</title><title>TARGET 1.1</title><title>TARGET 1.2</title><g id="TARGETS" transform="matrix(3.7752637863159184, 0, 0, 3.7752637863159184, -376.8137512207031, -31.512596130371065)">
	
	
	
	
	
	
	
	
	
	
	<g class="st2">
	</g>
	
	
	
	<path class="st0" d="M50.7,32.3c-21.6,0-39.1,17.5-39.1,39.1s17.5,39.1,39.1,39.1s39.1-17.5,39.1-39.1l0,0&#10;&#9;&#9;&#9;C89.9,49.9,72.3,32.3,50.7,32.3z M16.6,71.5c0-18.8,15.3-34.1,34.1-34.1c7.8,0,15.5,2.7,21.5,7.7L59.9,57.3&#10;&#9;&#9;&#9;c-0.8-1.3-2.3-2.1-3.8-2.2H45.4h-0.3l7.9,9l3.1,3.6l-5,1.1l2,2.2l6.3,7.1L52.3,72l-3.8-3.3L47,67.4l3.7-0.8h0.1l0,0L41.1,58&#10;&#9;&#9;&#9;c-0.2,0.3-0.4,0.7-0.5,1l-4.2,13.7c0,0-0.8,2.5,1.4,3.1s2.8-1.8,2.8-1.8l3.4-11.4c0,0,0.2-0.9,0.8-0.7s0.4,1.1,0.4,1.1l-3.4,12.5&#10;&#9;&#9;&#9;L24.3,93C19.3,86.9,16.6,79.3,16.6,71.5z M50.7,105.6c-8.5,0-16.7-3.2-23-9l12.1-12.2h4.9v15.3c0,1.5,1.2,2.6,2.6,2.6&#10;&#9;&#9;&#9;c1.5,0,2.6-1.2,2.6-2.6c0,0,0,0,0,0V84.4h1.5v15.3c0,1.5,1.2,2.6,2.6,2.6s2.6-1.2,2.6-2.6V84.4h5.5l-4.8-17.5l1.1-1.1L61,74&#10;&#9;&#9;&#9;c0,0,0.6,2.4,2.8,1.8s1.4-3.1,1.4-3.1l-3.2-10.3l14-14c12.8,13.9,11.9,35.4-2,48.2C67.6,102.4,59.3,105.6,50.7,105.6z" style="fill: rgb(247, 139, 51); fill-opacity: 1;" transform="matrix(0.9999999999999999, 0, 0, 0.9999999999999999, 99.36086273193357, -12.769267082214354)"/>
	<path class="st0" d="M50.7,52.7c2.8,0,5.1-2.3,5.1-5.1c0-2.8-2.3-5.1-5.1-5.1c-2.8,0-5.1,2.3-5.1,5.1c0,0,0,0,0,0.1&#10;&#9;&#9;&#9;C45.7,50.4,47.9,52.7,50.7,52.7C50.7,52.7,50.7,52.7,50.7,52.7z" style="fill: rgb(247, 139, 51); fill-opacity: 1;" transform="matrix(0.9999999999999999, 0, 0, 0.9999999999999999, 99.36086273193357, -12.769267082214354)"/>
</g></svg>